<svg width="50" height="56" viewBox="0 0 50 56" fill="none" xmlns="http://www.w3.org/2000/svg">
<rect width="50" height="56" fill="#F5F5F5"/>
<g id="Desktop" clip-path="url(#clip0_0_1)">
<rect width="1440" height="7184" transform="translate(-1038 -6953)" fill="white"/>
<g id="Frame">
<g id="Frame_2">
<path id="Rectangle" d="M-1038 -339H402V231H-1038V-339Z" fill="#0B3B3C"/>
<g id="Frame_3">
<g id="Frame_4">
<g id="Frame_5">
<g id="Frame_6">
<g id="Frame_7" clip-path="url(#clip1_0_1)">
<g id="UI">
<g id="Home-D">
<g id="footer">
<g id="social">
<g id="facebook-icon">
<path id="Stroke-551" opacity="0.3" fill-rule="evenodd" clip-rule="evenodd" d="M49 28.0001C49 42.8449 38.2563 54.8801 25 54.8801C11.7437 54.8801 1 42.8449 1 28.0001C1 13.153 11.7437 1.12012 25 1.12012C38.2563 1.12012 49 13.153 49 28.0001Z" stroke="white" stroke-linecap="round" stroke-linejoin="round"/>
<path id="Stroke-552" fill-rule="evenodd" clip-rule="evenodd" d="M30.3064 23.6709H26.703V21.9057C26.703 21.0033 27.2391 20.7893 27.615 20.7893H29.7842V16.8104L26.1638 16.8C22.6235 16.8 22.0812 19.7661 22.0812 21.6624V23.6709H19V27.1218H22.0812V39.2001H26.703V27.1218H29.9305L30.3064 23.6709Z" fill="white"/>
</g>
</g>
</g>
</g>
</g>
</g>
</g>
</g>
</g>
</g>
</g>
</g>
</g>
<defs>
<clipPath id="clip0_0_1">
<rect width="1440" height="7184" fill="white" transform="translate(-1038 -6953)"/>
</clipPath>
<clipPath id="clip1_0_1">
<rect width="50" height="56" fill="white"/>
</clipPath>
</defs>
</svg>
